<svg id="Layer_1" data-name="Layer 1" xmlns="http://www.w3.org/2000/svg" viewBox="0 -11 67.58 291"><defs><style>.cls-1{fill:#ee6f29;}.cls-2{fill:#e86824;}</style></defs><polygon class="cls-1" points="23.88 161.99 20.72 162.46 23.88 164.04 23.88 161.99"/><path class="cls-1" d="M20.82,261.14l-.26,0c-.52,0-.78.32-.78.95v1l2.08.37v-1A1.18,1.18,0,0,0,20.82,261.14Z"/><path class="cls-1" d="M22.71,115.91a4.08,4.08,0,0,0-.71-.06,2,2,0,0,0-1.46.5,2,2,0,0,0-.52,1.48,2.33,2.33,0,0,0,.63,1.67,3.11,3.11,0,0,0,1.74.84,3,3,0,0,0,.69.07,2,2,0,0,0,1.45-.51,2,2,0,0,0,.53-1.49,2.29,2.29,0,0,0-.64-1.66A3,3,0,0,0,22.71,115.91Z"/><path class="cls-1" d="M22.56,128.39a4.7,4.7,0,0,0-.6-.06,1.75,1.75,0,0,0-1.43.59,2.46,2.46,0,0,0-.49,1.63v.85l5.05.9v-.85a3.15,3.15,0,0,0-.66-2A2.9,2.9,0,0,0,22.56,128.39Z"/><path class="cls-1" d="M24.47,68.21H0V282.52H24.47a24.47,24.47,0,0,0,24.47-24.46V92.68A24.48,24.48,0,0,0,24.47,68.21Zm-7.54,37.61,6.78-1.32-6.78-3.61V96.55l11.33,2v3.53l-5.67-1,5.67,2.74v3l-5.65.75,5.65,1v3.55l-11.33-2Zm11.33,162.3-11.33-2v-5a4.08,4.08,0,0,1,.82-2.76,2.8,2.8,0,0,1,2.24-1,5.6,5.6,0,0,1,.83.08,4.62,4.62,0,0,1,1.94.84,4.53,4.53,0,0,1,1.39,1.71,5.6,5.6,0,0,1,.51,2.44v1.41l3.6.63Zm0-10.39-11.33-2V252.2l11.33,2Zm0-5.15-11.33-2V247l8.64,1.53v-3.43l2.69.47Zm0-15.41-5.7,2.77,5.7,1v3.56l-11.33-2V239l5.79-2.75-5.79-1v-3.55l11.33,2Zm0-5.15-11.33-2v-3.55l11.33,2Zm0-5.15-11.33-2v-7.56l2.82.5v4l1.41.24v-3.52l2.67.48v3.52l1.6.27v-4l2.83.5Zm-.87-15.6a3.43,3.43,0,0,1-2.76,1.18v-3.77c.65.06,1-.17,1-.71a.8.8,0,0,0-.17-.51.64.64,0,0,0-.51-.21.78.78,0,0,0-.65.38,7.51,7.51,0,0,0-.6,1.19,11.75,11.75,0,0,1-.73,1.5,3.34,3.34,0,0,1-1,1,2.72,2.72,0,0,1-1.58.43,4.57,4.57,0,0,1-.82-.08,3,3,0,0,1-2.08-1.49,5.79,5.79,0,0,1-.73-3,4.8,4.8,0,0,1,1-3.27,3.62,3.62,0,0,1,2.7-1.12v3.83c-.59-.06-.89.14-.89.57a.6.6,0,0,0,.65.63.69.69,0,0,0,.59-.36,7.43,7.43,0,0,0,.55-1.15,12.13,12.13,0,0,1,.71-1.51,3.33,3.33,0,0,1,1-1,2.74,2.74,0,0,1,1.59-.44,5.36,5.36,0,0,1,.81.08,3.11,3.11,0,0,1,1.52.75A4.09,4.09,0,0,1,28,205.78a6,6,0,0,1,.39,2.23A4.9,4.9,0,0,1,27.39,211.27ZM16.93,200.84v-8.48l2.67.46,5.83,5.57v-4.54l2.83.49v8.48l-2.67-.46-5.84-5.51v4.48Zm10.45-9.91A3.62,3.62,0,0,1,24.53,192a7.28,7.28,0,0,1-1.22-.11l-6.38-1.12v-3.54l6.38,1.12a3.17,3.17,0,0,0,.53.05,1.22,1.22,0,0,0,.86-.29,1.18,1.18,0,0,0,.31-.91,1.62,1.62,0,0,0-.46-1.22,2.29,2.29,0,0,0-1.24-.59l-6.38-1.12v-3.54l6.38,1.12a6.48,6.48,0,0,1,2.77,1.17,5.56,5.56,0,0,1,1.71,2.15,6.33,6.33,0,0,1,.58,2.7A4.38,4.38,0,0,1,27.38,190.93ZM16.93,172.38v-4.25l5.5,5.16,5.83-3.17v4.27l-4.91,2.43,4.91.87v3.55l-11.33-2V175.7l4.78.83Zm0-26.85v-4.34l11.33,2v3.54l-5.67-1,5.67,2.73v3l-5.65.76,5.65,1v3.55l-11.33-2v-4.36l6.78-1.31Zm0-11.12v-4.72A5.87,5.87,0,0,1,17.5,127a4,4,0,0,1,1.58-1.71,4.53,4.53,0,0,1,2.35-.59,7.67,7.67,0,0,1,1.13.09A6.87,6.87,0,0,1,25.47,126a6.62,6.62,0,0,1,2,2.41,7,7,0,0,1,.75,3.24v4.72Zm11.33,23.18v3.74l-1.71.26v3.78l1.71.86V170l-11.33-6.13v-4.1Zm-.51-36.08a4.3,4.3,0,0,1-1.76,1.8,5.48,5.48,0,0,1-2.64.62,7.86,7.86,0,0,1-1.44-.13,6.46,6.46,0,0,1-2.69-1.11,5.86,5.86,0,0,1-1.83-2.15,6.67,6.67,0,0,1-.65-3,5.92,5.92,0,0,1,.63-2.81,4.29,4.29,0,0,1,1.78-1.8,5.37,5.37,0,0,1,2.64-.63,9.34,9.34,0,0,1,1.4.13,6.51,6.51,0,0,1,2.69,1.11,5.55,5.55,0,0,1,1.83,2.13,6.43,6.43,0,0,1,.66,3A6.12,6.12,0,0,1,27.75,121.51Zm-.37-26.39a3.62,3.62,0,0,1-2.85,1.11,7.28,7.28,0,0,1-1.22-.11L16.93,95V91.46l6.38,1.12a2.38,2.38,0,0,0,.53,0,1.18,1.18,0,0,0,.86-.29,1.17,1.17,0,0,0,.31-.91,1.58,1.58,0,0,0-.46-1.21,2.3,2.3,0,0,0-1.24-.6L16.93,88.5V85l6.38,1.12a6.25,6.25,0,0,1,2.77,1.17,5.53,5.53,0,0,1,1.71,2.14,6.33,6.33,0,0,1,.58,2.7A4.38,4.38,0,0,1,27.38,95.12Z"/><path class="cls-2" d="M29.58,34a14.14,14.14,0,0,0-10.12-2.2l-.19,0A14.21,14.21,0,0,0,7.69,48.25a12.16,12.16,0,0,0,.45,1.85,10.63,10.63,0,0,1-.55,7.68,1.18,1.18,0,0,0,.17,1.27A1.2,1.2,0,0,0,9,59.43L14.29,58a14.08,14.08,0,0,0,7.39,2.09A14.22,14.22,0,0,0,29.58,34Zm2,18.41a11.85,11.85,0,0,1-16.43,3.31,1.22,1.22,0,0,0-.66-.2,1.1,1.1,0,0,0-.31,0l-3.62,1a12.94,12.94,0,0,0-.15-7.14A12.08,12.08,0,0,1,10,47.85a11.85,11.85,0,0,1,9.5-13.67l.17,0A11.85,11.85,0,0,1,31.57,52.4Z"/><path class="cls-2" d="M21.7,38.61a1.18,1.18,0,0,0-1.18,1.18V46.9a1.19,1.19,0,1,0,2.37,0V39.79A1.18,1.18,0,0,0,21.7,38.61Z"/><path class="cls-2" d="M22.79,51.31a1.14,1.14,0,0,0-.25-.39.94.94,0,0,0-.19-.14.49.49,0,0,0-.2-.11.57.57,0,0,0-.22-.07,1.2,1.2,0,0,0-1.07.32,1.14,1.14,0,0,0-.25.39,1.22,1.22,0,0,0-.1.45,1.14,1.14,0,0,0,.1.45,1.24,1.24,0,0,0,.25.39,1.36,1.36,0,0,0,.39.25,1.13,1.13,0,0,0,.45.09,1.2,1.2,0,0,0,.45-.09,1.36,1.36,0,0,0,.39-.25,1.62,1.62,0,0,0,.25-.39,1.13,1.13,0,0,0,.09-.45A1.2,1.2,0,0,0,22.79,51.31Z"/></svg>