<svg xmlns="http://www.w3.org/2000/svg" viewBox="0 0 177.85 175.24"><defs><style>.cls-1{fill:#084924;}</style></defs><g id="Layer_2" data-name="Layer 2"><g id="Layer_1-2" data-name="Layer 1"><path class="cls-1" d="M92.16,174.56c-5.73.08-12.31.19-18.9.27q-17.34.21-34.67.4A38.45,38.45,0,0,1,0,136.65V119.46Q0,79.29,0,39.11A37.81,37.81,0,0,1,4,21.42C10,9.87,19.43,2.87,32.24.53A35.26,35.26,0,0,1,38.57,0Q88.93,0,139.28,0a38.57,38.57,0,0,1,37.23,28.39,40.73,40.73,0,0,1,1.33,10.71q0,18.52,0,37,0,30,0,60a38.56,38.56,0,0,1-26.08,37,5.8,5.8,0,0,1-1.76.3q-9.4.21-18.8.38Zm-.63-23.9v-.07c.73,0,1.46,0,2.18,0l38.76-.62a7.91,7.91,0,0,0,2.68-.5,28.17,28.17,0,0,0,18.4-26.7q0-31.4,0-62.78c0-2.88,0-5.76,0-8.64a28.12,28.12,0,0,0-28.28-27.9q-34.29,0-68.59,0c-1.65,0-3.29,0-4.94,0A26.94,26.94,0,0,0,36.84,28C28.51,33.56,24.09,41.41,24,51.51c-.09,10.85,0,21.71,0,32.57q0,19.42,0,38.85a28.37,28.37,0,0,0,1.49,9.23,28.05,28.05,0,0,0,26.56,19q8.68-.07,17.38-.19Z"/><path class="cls-1" d="M91.07,138.7c-10.73.13-21.47.31-32.2.38a21.69,21.69,0,0,1-15.49-6.17,22,22,0,0,1-7.16-16.5q0-29.11,0-58.22A22.53,22.53,0,0,1,59,35.55q29.82,0,59.66,0a22.54,22.54,0,0,1,22.64,22.59q0,29.21,0,58.41a22.74,22.74,0,0,1-15,21.21,6.06,6.06,0,0,1-1.93.37q-13.87.26-27.74.46c-1.86,0-3.73,0-5.6,0Zm-2.3-16.36A35,35,0,1,0,53.71,87.39,35.06,35.06,0,0,0,88.77,122.34Zm36-62.19a8,8,0,1,0-8.1-8.06A8,8,0,0,0,124.77,60.15Z"/><path class="cls-1" d="M66.88,87.31a21.88,21.88,0,1,1,21.9,21.84A21.9,21.9,0,0,1,66.88,87.31Z"/></g></g></svg>