<svg xmlns="http://www.w3.org/2000/svg" width="114.88482172507622" height="494.69492633911193" data-name="Layer 1" id="svgcontent" x="344.0575891374619" y="247.34746316955597" viewBox="0 0 67.58 291"><g style="pointer-events:all"><title style="pointer-events:inherit">Layer 1</title><polygon class="cls-1" points="23.88 161.99 20.72 162.46 23.88 164.04 23.88 161.99" fill="#ee6f29" id="svg_1" style="pointer-events:inherit"></polygon><path class="cls-1" d="M20.82,261.14L20.56,261.14C20.04,261.14 19.78,261.46 19.78,262.09L19.78,263.09L21.86,263.46L21.86,262.46A1.18,1.18 0 0 0 20.82,261.14z" fill="#ee6f29" id="svg_2" style="pointer-events:inherit"></path><path class="cls-1" d="M22.71,115.91A4.08,4.08 0 0 0 22,115.85A2,2 0 0 0 20.54,116.35A2,2 0 0 0 20.02,117.83A2.33,2.33 0 0 0 20.65,119.5A3.11,3.11 0 0 0 22.39,120.34A3,3 0 0 0 23.08,120.41A2,2 0 0 0 24.53,119.9A2,2 0 0 0 25.06,118.41A2.29,2.29 0 0 0 24.42,116.75A3,3 0 0 0 22.71,115.91z" fill="#ee6f29" id="svg_3" style="pointer-events:inherit"></path><path class="cls-1" d="M22.56,128.39A4.7,4.7 0 0 0 21.96,128.33A1.75,1.75 0 0 0 20.53,128.92A2.46,2.46 0 0 0 20.04,130.55L20.04,131.4L25.09,132.3L25.09,131.45A3.15,3.15 0 0 0 24.43,129.45A2.9,2.9 0 0 0 22.56,128.39z" fill="#ee6f29" id="svg_4" style="pointer-events:inherit"></path><path class="cls-2" d="M21.7,38.61A1.18,1.18 0 0 0 20.52,39.79L20.52,46.9A1.19,1.19 0 1 0 22.89,46.9L22.89,39.79A1.18,1.18 0 0 0 21.7,38.61z" fill="#e86824" id="svg_7" style="pointer-events:inherit"></path><path class="cls-2" d="M22.79,51.31A1.14,1.14 0 0 0 22.54,50.92A0.94,0.94 0 0 0 22.35,50.78A0.49,0.49 0 0 0 22.15,50.67A0.57,0.57 0 0 0 21.93,50.6A1.2,1.2 0 0 0 20.86,50.92A1.14,1.14 0 0 0 20.61,51.31A1.22,1.22 0 0 0 20.51,51.76A1.14,1.14 0 0 0 20.61,52.21A1.24,1.24 0 0 0 20.86,52.6A1.36,1.36 0 0 0 21.25,52.85A1.13,1.13 0 0 0 21.7,52.94A1.2,1.2 0 0 0 22.15,52.85A1.36,1.36 0 0 0 22.54,52.6A1.62,1.62 0 0 0 22.79,52.21A1.13,1.13 0 0 0 22.88,51.76A1.2,1.2 0 0 0 22.79,51.31z" fill="#e86824" id="svg_8" style="pointer-events:inherit"></path><ellipse fill="#DDDDDD" cx="21.8069" cy="45.66531" id="svg_9" rx="14.38816" ry="14.38816" stroke="null" style="pointer-events:inherit"></ellipse><path fill="#DDDDDD" stroke="null" opacity="NaN" d="M0.71708,68.2858" id="svg_13" style="pointer-events:inherit"></path><path fill="#DDDDDD" stroke="null" d="M0.76531,68.18151L29.01234,67.90124L0.76531,68.18151z" id="svg_16" style="pointer-events:inherit"></path><path stroke-width="0" stroke="#000" id="svg_6" d="M-0.09195,68.98317C-0.09195,68.98317 2.76082,68.05294 26.05841,68.98317C49.356,69.9134 48.40508,95.95981 48.0966,95.81358C48.40508,95.95981 48.40508,260.14521 48.0966,259.99898C48.40508,260.1452 42.69955,281.07535 28.43572,282.00558C14.17189,282.93581 -1.04287,282.00558 -1.35135,281.85936" opacity="NaN" fill="#DDDDDD" style="pointer-events:inherit"></path></g><defs></defs></svg>