<svg xmlns="http://www.w3.org/2000/svg" viewBox="0 0 83.4 92.47"><defs><style>.cls-1{fill:#0b4925;}</style></defs><g id="Layer_2" data-name="Layer 2"><g id="Warstwa_1" data-name="Warstwa 1"><path class="cls-1" d="M83.38,45.81c0-.18,0-.38,0-.58s0-.13,0-.2C83.75,35.36,79.45.17,72.84,0c-3.62-.09-9.18,10.31-13.53,21.34a53.16,53.16,0,0,0-35.21,0C19.74,10.31,14.18-.09,10.56,0c-2.92.08-5.28,7-7,15.51C1.17,26.24-.14,39.82,0,45.52,0,47,0,49.11,0,49.58a31.25,31.25,0,0,0,1.39,8.8C5.63,74.5,22.06,92.47,41.7,92.47c22.86,0,41.7-24.68,41.7-42.12C83.4,49.83,83.4,47.25,83.38,45.81Z"/></g></g></svg>