<svg id="Layer_1" data-name="Layer 1" xmlns="http://www.w3.org/2000/svg" viewBox="0 0 67.58 291"><defs><style>.cls-1{fill:#4bc6df;}.cls-2{fill:#5cc3df;}</style></defs><polygon class="cls-1" points="25.32 242.01 22.17 242.47 25.32 244.06 25.32 242.01"/><path class="cls-1" d="M24,219.37a4.81,4.81,0,0,0-.61-.06,1.73,1.73,0,0,0-1.42.59,2.46,2.46,0,0,0-.5,1.63v.85l5.06.9v-.85a3.15,3.15,0,0,0-.66-2A2.92,2.92,0,0,0,24,219.37Z"/><polygon class="cls-1" points="25.32 113.58 25.32 111.53 22.17 112 25.32 113.58"/><path class="cls-1" d="M24.47,68.21H0V282.52H24.47a24.47,24.47,0,0,0,24.47-24.46V92.68A24.48,24.48,0,0,0,24.47,68.21ZM18.38,100l6.78-1.32-6.78-3.61V90.73l11.32,2v3.53l-5.66-1L29.7,98v3l-5.64.75,5.64,1v3.55l-11.32-2Zm0,9.28,11.32-2.15v3.75l-1.71.25v3.78l1.71.86v3.73l-11.32-6.13Zm0,16,4.78.84-4.78-4.16v-4.24l5.5,5.15,5.82-3.17v4.27l-4.91,2.43,4.91.87v3.55l-11.32-2Zm0,4.9,2.81.5v4l1.41.24v-3.52l2.67.48v3.52l1.6.27v-4l2.83.49v7.56l-11.32-2Zm0,9.15,2.67.47,5.82,5.56v-4.54l2.83.5v8.48L27,149.29l-5.84-5.5v4.48l-2.81-.5Zm-1.21,50.89a1,1,0,0,1-.79.33,1.66,1.66,0,0,1-1.65-1.63A1.18,1.18,0,0,1,15,188a1.07,1.07,0,0,1,.81-.33,1.55,1.55,0,0,1,1.15.5,1.62,1.62,0,0,1,.48,1.17A1.13,1.13,0,0,1,17.17,190.18ZM18.82,152a3.78,3.78,0,0,1,1.56-1.63,4.66,4.66,0,0,1,2.35-.54v3.74a1.49,1.49,0,0,0-.87.57,1.68,1.68,0,0,0-.32,1,2,2,0,0,0,.68,1.53,3.48,3.48,0,0,0,1.8.84,3.84,3.84,0,0,0,.69.07,2,2,0,0,0,1.31-.41A1.44,1.44,0,0,0,26.5,156a2.17,2.17,0,0,0-.31-1.14,2.71,2.71,0,0,0-.87-.88v-3.74a6.65,6.65,0,0,1,3.25,2.39,6.42,6.42,0,0,1,1.21,3.88,5.27,5.27,0,0,1-.56,2.54,3.76,3.76,0,0,1-1.57,1.61,4.87,4.87,0,0,1-2.36.55,6.74,6.74,0,0,1-1.27-.11,7.31,7.31,0,0,1-3-1.2,6.44,6.44,0,0,1-2-2.3,6.67,6.67,0,0,1-.73-3.11A5.4,5.4,0,0,1,18.82,152Zm3.78,28.79v-3.52l2.67.48v3.52l1.6.27v-4l2.83.5v7.55l-11.32-2V176l2.81.5v4Zm7.1,6.43v8.48L27,195.23l-5.84-5.51v4.48l-2.81-.49v-8.48l2.67.46,5.82,5.57v-4.55ZM21.16,209l3.46.61.33,1.26,2.07.37V207.8l2.68.47v7l-3.77-.65.24.91-3.46-.61-.24-.91-4.09-.72v-3.55l3.12.54Zm8.54,13.66v4.72l-11.32-2v-4.72a6,6,0,0,1,.56-2.69,4,4,0,0,1,1.59-1.71,4.53,4.53,0,0,1,2.34-.6,8,8,0,0,1,1.14.1A6.87,6.87,0,0,1,26.92,217a6.73,6.73,0,0,1,2,2.41A7,7,0,0,1,29.7,222.65Zm0,31.68L24,257.1l5.69,1v3.55l-11.32-2v-3.55l5.79-2.76-5.79-1v-3.56l11.32,2Zm0-13-1.71.25v3.78l1.71.86V250l-11.32-6.13v-4.1l11.32-2.14Zm-.74-5.6a3.1,3.1,0,0,1-2.52,1,5.92,5.92,0,0,1-1.07-.1v-3.5a3.38,3.38,0,0,0,.49,0c.51,0,.76-.22.76-.66a.72.72,0,0,0-.21-.53,1.35,1.35,0,0,0-.72-.3l-7.31-1.3v-3.53l7.31,1.29a5,5,0,0,1,3.08,1.6A4.75,4.75,0,0,1,29.82,233,4.17,4.17,0,0,1,29,235.76Zm-.14-30.43A3.61,3.61,0,0,1,26,206.44a6.29,6.29,0,0,1-1.22-.11l-6.38-1.12v-3.53l6.38,1.11a2.32,2.32,0,0,0,.53.05,1.16,1.16,0,0,0,.85-.29,1.17,1.17,0,0,0,.32-.91,1.64,1.64,0,0,0-.46-1.21,2.34,2.34,0,0,0-1.24-.6l-6.38-1.12v-3.53l6.38,1.12a6.16,6.16,0,0,1,2.76,1.17,5.56,5.56,0,0,1,1.72,2.14,6.52,6.52,0,0,1,.58,2.7A4.33,4.33,0,0,1,28.82,205.33Zm.14-29.7a3.1,3.1,0,0,1-2.52,1,5.92,5.92,0,0,1-1.07-.1v-3.5a3.38,3.38,0,0,0,.49,0c.51,0,.76-.22.76-.66a.69.69,0,0,0-.21-.52,1.42,1.42,0,0,0-.72-.31l-7.31-1.29v-3.54l7.31,1.3a4.91,4.91,0,0,1,3.08,1.6,4.73,4.73,0,0,1,1.05,3.16A4.17,4.17,0,0,1,29,175.63Z"/><path class="cls-2" d="M34.07,36.78a14.23,14.23,0,1,0,0,20.12A14.22,14.22,0,0,0,34.07,36.78ZM32.54,55.37a12,12,0,1,1,0-17A12.06,12.06,0,0,1,32.54,55.37Zm-2.09-2.9a.8.8,0,0,1-1.48.62,5,5,0,0,0-4.67-3,5,5,0,0,0-4.69,3,.82.82,0,0,1-.75.51,1.88,1.88,0,0,1-.33-.05.79.79,0,0,1-.42-1,6.6,6.6,0,0,1,6.19-3.94A6.62,6.62,0,0,1,30.45,52.47ZM18.7,43a1.66,1.66,0,1,1,1.66,1.67A1.67,1.67,0,0,1,18.7,43Zm7.56,0a1.67,1.67,0,1,1,1.67,1.67A1.67,1.67,0,0,1,26.26,43Z"/></svg>