<?xml version="1.0" encoding="utf-8"?>
<!-- Generator: Adobe Illustrator 24.3.0, SVG Export Plug-In . SVG Version: 6.00 Build 0)  -->
<svg version="1.1" id="Capa_1" xmlns="http://www.w3.org/2000/svg" xmlns:xlink="http://www.w3.org/1999/xlink" x="0px" y="0px"
	 viewBox="0 0 512 512" style="enable-background:new 0 0 512 512;" xml:space="preserve">
<style type="text/css">
	.st0{fill:#084924;}
</style>
<g>
	<g>
		<path class="st0" d="M497,482h-96.4h-24.1C318.3,482,271,434.7,271,376.5S318.3,271,376.5,271S482,318.3,482,376.5
			c0,13.9-11.3,25.2-25.2,25.2s-25.2-11.3-25.2-25.2c0-30.4-24.7-55.2-55.2-55.2c-30.4,0-55.2,24.7-55.2,55.2s24.7,55.2,55.2,55.2
			c15.8,0,30.1-6.7,40.2-17.4c10.1,10.7,24.3,17.4,40.2,17.4c30.4,0,55.2-24.7,55.2-55.2c0-74.7-60.8-135.5-135.5-135.5
			c-11.8,0-23.2,1.5-34.2,4.4c15.9-24.8,25.1-54.2,25.1-85.8C367.4,71.6,295.8,0,207.8,0S48.2,71.6,48.2,159.6
			c0,62.1,35.7,116.1,87.7,142.4C56.6,331.4,0,407.7,0,497c0,8.3,6.7,15,15,15h361.5h24.1H497c8.3,0,15-6.7,15-15S505.3,482,497,482
			z M376.5,401.7c-13.9,0-25.2-11.3-25.2-25.2c0-13.9,11.3-25.2,25.2-25.2c13.9,0,25.2,11.3,25.2,25.2
			C401.7,390.4,390.4,401.7,376.5,401.7z M78.2,159.6C78.2,88.1,136.3,30,207.8,30s129.6,58.1,129.6,129.6s-58.1,129.6-129.6,129.6
			S78.2,231.1,78.2,159.6z M30.6,482c7.6-91,84.2-162.8,177.2-162.8c14.8,0,29.4,1.8,43.5,5.4c-6.7,16-10.4,33.5-10.4,51.9
			c0,42.6,19.8,80.6,50.6,105.5H30.6z"/>
	</g>
</g>
</svg>
