<?xml version="1.0" encoding="utf-8"?>
<!-- Generator: Adobe Illustrator 24.3.0, SVG Export Plug-In . SVG Version: 6.00 Build 0)  -->
<svg version="1.1" id="Layer_1" xmlns="http://www.w3.org/2000/svg" xmlns:xlink="http://www.w3.org/1999/xlink" x="0px" y="0px"
	 viewBox="0 0 512 512" style="enable-background:new 0 0 512 512;" xml:space="preserve">
<style type="text/css">
	.st0{fill:#0B4925;}
</style>
<path class="st0" d="M342.4,271.4c-23-35.9-62.3-57.4-105-57.4c-42.7,0-81.9,21.5-105,57.4L76.9,358c-9.2,14.4-13.5,31-12.3,48
	c1.2,17,7.6,32.9,18.7,45.9c11.1,13,25.8,21.8,42.4,25.6c16.6,3.8,33.7,2.2,49.3-4.7l1-0.5c39.3-17,84.3-16.8,123.5,0.5
	c10.1,4.4,20.8,6.7,31.7,6.7c5.9,0,11.8-0.7,17.7-2c16.6-3.8,31.3-12.7,42.4-25.6c11.1-13,17.6-28.8,18.8-45.9
	c1.2-17-3.1-33.6-12.3-48L342.4,271.4z"/>
<path class="st0" d="M91.9,271.2c16.5-6.3,29.1-19.7,35.3-37.5c6-17,5.5-36.1-1.4-53.9c-6.9-17.8-19.3-32.3-35.1-40.9
	c-16.6-9-34.8-10.5-51.3-4.1C6.2,147.5-9,188.5,5.5,226.2c11.6,30,38.5,48.9,65.8,48.9C78.2,275.1,85.2,273.8,91.9,271.2z"/>
<path class="st0" d="M199.6,203.4c41.5,0,75.2-38.4,75.2-85.7c0-47.3-33.7-85.7-75.2-85.7c-41.5,0-75.2,38.4-75.2,85.7
	C124.4,164.9,158.1,203.4,199.6,203.4z"/>
<path class="st0" d="M329.5,224.4L329.5,224.4c6.4,2.1,12.9,3.1,19.4,3.1c30.2,0,59.7-22,71-55.8c6.5-19.5,6.1-40.1-1.2-58
	C411,95,397,81.4,379,75.4c-17.9-6-37.4-3.5-54.7,7c-16.5,10-29.2,26.2-35.7,45.7C275.1,169.2,293.4,212.4,329.5,224.4z"/>
<path class="st0" d="M487.9,214.4L487.9,214.4c-28.6-21.1-71.4-12-95.4,20.4c-24,32.4-20.2,76,8.3,97.1
	c10.4,7.7,22.7,11.4,35.3,11.4c21.9,0,44.8-11.2,60-31.8C520.2,279.2,516.4,235.6,487.9,214.4z"/>
</svg>
