<svg id="Capa_1" data-name="Capa 1" xmlns="http://www.w3.org/2000/svg" viewBox="0 0 106.05 106.05"><path d="M90.5,15.5a53,53,0,1,0,0,75A53.05,53.05,0,0,0,90.5,15.5ZM84.8,84.8a44.9,44.9,0,1,1,0-63.5A45,45,0,0,1,84.8,84.8ZM77,74a3,3,0,0,1-5.5,2.3,18.71,18.71,0,0,0-17.4-11c-7.9,0-14.7,4.3-17.5,11a3,3,0,0,1-2.8,1.9,5,5,0,0,1-1.2-.2A2.94,2.94,0,0,1,31,74.1c3.7-8.9,12.8-14.7,23.1-14.7A24.61,24.61,0,0,1,77,74ZM33.2,38.7a6.2,6.2,0,1,1,6.2,6.2A6.23,6.23,0,0,1,33.2,38.7Zm28.2,0a6.2,6.2,0,1,1,6.2,6.2A6.23,6.23,0,0,1,61.4,38.7Z" transform="translate(0.03 0.03)"/></svg>