<svg xmlns="http://www.w3.org/2000/svg" width="2749.334" height="1622.669" viewBox="0 0 2062 1217"><path fill="none" d="m319 1.08-18 2.08-26 4.29c-26.11 5.22-56.05 15.21-80 26.81C103.04 78.77 35.89 160.94 11.13 260c-4.71 18.82-7.87 37.66-9.22 57L1 329v559l.91 12c1.93 27.64 7.32 54.7 16.09 81 37.33 111.98 127.25 196.68 242 225.37 18.76 4.7 37.77 7.63 57 9.59h10l12 1.04h1384l19-1c17.64-.21 50.73-6.66 68-11.58 58.23-16.59 112.9-47.45 154.96-91.42 43.51-45.49 74.87-102.45 88.46-164 2.99-13.53 7.42-39.55 7.58-53l1-19V340l-1-19c-.27-22.73-8.17-58.09-14.98-80C2010.83 127.76 1918.07 39.89 1803 11.13c-19.55-4.89-48.02-10.1-68-10.05H319Z" style="fill:#7bb32a;fill-opacity:.5"/></svg>