<svg xmlns="http://www.w3.org/2000/svg" viewBox="0 0 123.77 96.63"><defs><style>.cls-1{fill:#0b4925;}</style></defs><g id="Layer_2" data-name="Layer 2"><g id="Warstwa_1" data-name="Warstwa 1"><path class="cls-1" d="M61.89,68.75c-4.7,0-8.53,3.27-8.53,7.28s3.8,8.84,8.53,8.84S70.41,80,70.41,76,66.59,68.75,61.89,68.75Zm0,11.12c-1.79,0-3.53-2.43-3.53-3.84,0-1.08,1.45-2.28,3.53-2.28S65.41,75,65.41,76C65.41,77.44,63.67,79.87,61.89,79.87Z"/><path class="cls-1" d="M46.32,40.75c-1.66,0-3,1.07-3,2.4a3.4,3.4,0,0,0,3,3.16,3.4,3.4,0,0,0,3-3.16C49.33,41.82,48,40.75,46.32,40.75Z"/><path class="cls-1" d="M78.34,40.75c-1.67,0-3,1.07-3,2.4a3,3,0,1,0,6,0C81.35,41.82,80,40.75,78.34,40.75Z"/><path class="cls-1" d="M108.67,6.73c-7.7-8.52-21.09-9-29.85-1.11A23,23,0,0,0,76.4,8.21a39.55,39.55,0,0,0-29,0A22.07,22.07,0,0,0,45,5.62C36.2-2.29,22.81-1.79,15.1,6.73c-6.94,7.69-21.46,36.64-12,45.2,4.56,4.11,12.67,2.22,19.64-.7,2.75,19.67,18.17,45.4,39.14,45.4S98.27,70.9,101,51.23c7,2.92,15.09,4.81,19.64.7C130.13,43.37,115.62,14.42,108.67,6.73ZM18.81,10.08a15.76,15.76,0,0,1,15-4.7c-3.61,15.12-12.18,24.23-27.4,29C9.11,25.36,14.62,14.72,18.81,10.08ZM61.89,91.63c-17.6,0-33.27-24.21-34.51-44.25l-.23-3.71L23.8,45.28c-8.42,4-14.9,5.14-17.34,2.94-2-1.85-1.93-6.3-.62-11.6C22.53,31.75,31.9,22.15,35.78,5.91a16.59,16.59,0,0,1,8.64,6.75l1.17,1.8,2-.9a34.26,34.26,0,0,1,13.16-3.08C59.8,27.17,65.2,44.4,74.83,55c5.15,5.66,11.08,9,17.3,9.82C86.1,79.21,74.49,91.63,61.89,91.63Zm55.42-43.41c-2.44,2.2-8.92,1.1-17.34-2.94l-3.35-1.61-.23,3.71a53.45,53.45,0,0,1-3.49,15.5c-5.93-.63-11.63-3.79-16.59-9.24C67,43.4,61.79,26.68,62.71,10.47a34.24,34.24,0,0,1,13.51,3.09l2,.9,1.18-1.8a16.91,16.91,0,0,1,2.81-3.33c6.71-6.06,16.94-5.72,22.79.75C112.07,18,123,43.09,117.31,48.22Z"/></g></g></svg>