<?xml version="1.0" encoding="UTF-8" standalone="no"?>
<svg
   xmlns:dc="http://purl.org/dc/elements/1.1/"
   xmlns:cc="http://creativecommons.org/ns#"
   xmlns:rdf="http://www.w3.org/1999/02/22-rdf-syntax-ns#"
   xmlns:svg="http://www.w3.org/2000/svg"
   xmlns="http://www.w3.org/2000/svg"
   xmlns:sodipodi="http://sodipodi.sourceforge.net/DTD/sodipodi-0.dtd"
   xmlns:inkscape="http://www.inkscape.org/namespaces/inkscape"
   width="34.7094in"
   height="31.58503in"
   viewBox="0 0 2499.0791 2274.1209"
   version="1.1"
   id="svg852"
   sodipodi:docname="both.svg"
   inkscape:version="1.0.1 (3bc2e813f5, 2020-09-07)">
  <metadata
     id="metadata858">
    <rdf:RDF>
      <cc:Work
         rdf:about="">
        <dc:format>image/svg+xml</dc:format>
        <dc:type
           rdf:resource="http://purl.org/dc/dcmitype/StillImage" />
        <dc:title></dc:title>
      </cc:Work>
    </rdf:RDF>
  </metadata>
  <defs
     id="defs856" />
  <sodipodi:namedview
     pagecolor="#ffffff"
     bordercolor="#666666"
     borderopacity="1"
     objecttolerance="10"
     gridtolerance="10"
     guidetolerance="10"
     inkscape:pageopacity="0"
     inkscape:pageshadow="2"
     inkscape:window-width="1920"
     inkscape:window-height="1017"
     id="namedview854"
     showgrid="false"
     inkscape:zoom="0.21038435"
     inkscape:cx="1424.0297"
     inkscape:cy="1952.6955"
     inkscape:window-x="-8"
     inkscape:window-y="-8"
     inkscape:window-maximized="1"
     inkscape:current-layer="svg852" />
  <path
     id="Selection"
     fill="none"
     stroke="#000000"
     stroke-width="1.00014"
     d="m 315.57889,0.49893009 c 0,0 -13,1.01027711 -13,1.01027711 0,0 -25.99999,3.1808727 -25.99999,3.1808727 -24.73001,3.8210483 -56.62001,13.8738061 -79,24.9868541 -34.48001,17.124698 -50.96,28.977949 -80.00001,54.184864 -15.66,13.59373 -38.019995,40.151012 -49.669996,57.595802 -29.799999,44.64225 -48.589999,87.33395 -59.329999,140.03841 -9.43999938,46.33272 -7.99999947,82.57265 -7.99999947,129.0354 0,0 0,149.04088 0,149.04088 0,0 1.00000017,16.0044 1.00000017,16.0044 0,0 0,13.00358 0,13.00358 0,0 1.0000002,13.00355 1.0000002,13.00355 0,0 0.9099993,14.00386 0.9099993,14.00386 0,0 6.8200008,66.01809 6.8200008,66.01809 13.269999,92.08526 45.429999,192.90294 126.269994,247.39787 12.49,8.42231 28,16.62457 42,22.22611 26.73,10.69294 55.35,16.54454 84,18.54508 0,0 12,0.91026 12,0.91026 0,0 42,0 42,0 0,0 10.00001,-0.91026 10.00001,-0.91026 25.61999,-1.75048 50.70999,-5.10139 75.99999,-9.67266 63.31,-11.42314 125.09,-29.63812 186.99999,-46.85284 51.04001,-14.20389 108.89001,-31.20857 162.00001,-30.58839 0,0 18.99999,1.00026 18.99999,1.00026 15.28001,0.18006 44.61,4.82134 60.00001,8.0022 82.60999,17.1047 147.14999,58.22598 209.00011,114.2014 0,0 13,12.7935 13,12.7935 0,0 9.9899,9.0525 9.9899,9.0525 0,0 10.0201,10.993 10.0201,10.993 45.7199,46.8628 86.36,98.2669 127.5999,149.0409 33.6601,41.4413 67.75,82.4426 103.56,122.0334 0,0 28.7901,30.0083 28.7901,30.0083 0,0 9.05,10.0027 9.05,10.0027 0,0 14.9899,14.0139 14.9899,14.0139 60.91,59.4463 128.08,110.2002 203,150.7213 89.81,48.5833 191.24,78.7616 292,93.6057 29.94,4.4112 59.85,7.7521 90,9.8227 0,0 26,1.9505 26,1.9505 0,0 11,0 11,0 0,0 12,0.9603 12,0.9603 0,0 52,1.0003 52,1.0003 0,0 19,-1.0003 19,-1.0003 0,0 19,-1.8505 19,-1.8505 31.34,-3.7411 62.06,-10.843 92,-20.8257 89.63,-29.8782 180.58,-81.7024 244.17,-152.3718 31.5,-35.0096 56.77,-72.72 70.85,-118.0324 4.41,-14.1839 9.8,-37.3303 9.98,-52.0143 0,0 1,-21.0058 1,-21.0058 0,0 0,-888.24366 0,-888.24366 0,0 -0.96,-12.00329 -0.96,-12.00329 0,0 0,-15.00412 0,-15.00412 0,0 -0.95,-10.00275 -0.95,-10.00275 -1.51,-21.64593 -4.95,-42.94176 -10.2199,-64.01756 -17.6801,-70.7394 -54.5901,-135.77724 -108.8701,-184.880714 -18.98,-17.164708 -39.78,-31.198558 -62,-43.762003 -18.06,-10.202801 -42.02,-19.395322 -62,-25.136897 -18.23,-5.2314349 -37.14,-8.3322856 -56,-10.2528125 0,0 -10,0 -10,0 0,0 -12,-0.96026341 -12,-0.96026341 0,0 -1245.00002,0 -1245.00002,0 0,0 -410.99999,0 -410.99999,0 0,0 -135,0 -135,0 0,0 -69,0 -69,0 z"
     style="fill:#e0e621;fill-opacity:0.73" />
  <path
     id="Selection-2"
     fill="none"
     stroke="#000000"
     stroke-width="0.999998"
     d="m 324.46573,1057.701 c 0,0 -18.00003,2.08 -18.00003,2.08 0,0 -26.00005,4.29 -26.00005,4.29 -26.11004,5.22 -56.05009,15.2101 -80.00013,26.8101 -91.96016,44.51 -159.110273,126.6802 -183.870313,225.7404 -4.71001,18.82 -7.8700097,37.66 -9.2200197,57.0001 0,0 -0.91,12 -0.91,12 0,0 0,559.0009 0,559.0009 0,0 0.91,12 0.91,12 1.93001,27.6401 7.3200197,54.7001 16.0900297,81.0002 37.33006,111.9802 127.250213,196.6803 242.000413,225.3704 18.76003,4.6999 37.77006,7.63 57.00009,9.5899 0,0 10.00002,0 10.00002,0 0,0 12.00002,1.0401 12.00002,1.0401 0,0 692.00114,0 692.00114,0 0,0 692.0012,0 692.0012,0 0,0 19.0001,-1 19.0001,-1 17.64,-0.21 50.73,-6.66 68,-11.58 58.2302,-16.5901 112.9003,-47.4502 154.9603,-91.4202 43.5101,-45.4901 74.8701,-102.4502 88.4602,-164.0003 2.9899,-13.53 7.42,-39.5501 7.5799,-53.0001 0,0 1.0001,-19 1.0001,-19 0,0 0,-537.0009 0,-537.0009 0,0 -1.0001,-19 -1.0001,-19 -0.27,-22.7301 -8.1699,-58.0901 -14.98,-80.0002 -35.1901,-113.2402 -127.9502,-201.1103 -243.0203,-229.8704 -19.5501,-4.89 -48.0202,-10.1 -68.0002,-10.05 0,0 -947.00163,0 -947.00163,0 0,0 -313.00049,0 -313.00049,0 0,0 -102.00017,0 -102.00017,0 0,0 -54.00008,0 -54.00008,0 z"
     style="fill:#7bb32a;fill-opacity:0.5" />
</svg>
