<svg xmlns="http://www.w3.org/2000/svg" viewBox="0 0 88.4 97.47"><defs><style>.cls-1{fill:#0b4925;}</style></defs><g id="Layer_2" data-name="Layer 2"><g id="Warstwa_1" data-name="Warstwa 1"><path class="cls-1" d="M29.44,45a2.55,2.55,0,0,0-2.78,2.21,3.14,3.14,0,0,0,2.78,2.92,3.14,3.14,0,0,0,2.78-2.92A2.55,2.55,0,0,0,29.44,45Z"/><path class="cls-1" d="M59,45a2.55,2.55,0,0,0-2.78,2.21A3.14,3.14,0,0,0,59,50.12a3.14,3.14,0,0,0,2.78-2.92A2.55,2.55,0,0,0,59,45Z"/><path class="cls-1" d="M44.2,70.61c-4.44,0-8.06,3.1-8.06,6.91s3.6,8.34,8.06,8.34,8.06-4.56,8.06-8.34S48.64,70.61,44.2,70.61Zm0,10.25c-1.52,0-3.06-2.14-3.06-3.34,0-.9,1.31-1.91,3.06-1.91s3.06,1,3.06,1.91C47.26,78.72,45.72,80.86,44.2,80.86Z"/><path class="cls-1" d="M88.38,48.27v-.48c0-.06,0-.12,0-.16.33-8.59-3-39.05-9.32-45.81A5.19,5.19,0,0,0,75.4,0h-.1C71,0,66,7,60.37,20.72a56.09,56.09,0,0,0-32.33,0C22.34,6.86,17.3-.09,13,0,8.89.11,6.07,5.34,3.59,17.47,1.24,28.15-.16,41.92,0,48c0,1.48,0,3.6,0,4.08a33.25,33.25,0,0,0,1.47,9.43c4.55,17.3,22.18,36,42.73,36,23.39,0,44.2-25,44.2-44.62C88.4,52.32,88.4,49.72,88.38,48.27ZM79.58,67.2,61.16,71.81l.48,1.94,16.68-4.17a50.66,50.66,0,0,1-5,7.25h-11v2h9.31A49.94,49.94,0,0,1,67.35,83l-5.71-1.43-.48,1.94,4.26,1.07C59.3,89.33,52,92.47,44.2,92.47s-15-3-21.17-7.75l4.22-1-.49-1.94-5.67,1.42A48.39,48.39,0,0,1,16.8,79h9.27V77h-11a50,50,0,0,1-4.88-7.22l16.56,4.14L27.25,72,9,67.38a40.4,40.4,0,0,1-2.69-7.22A28.25,28.25,0,0,1,5,52.08c0-.47,0-2.57,0-4.13C4.85,42.2,6.23,28.71,8.48,18.51c2.21-10.79,4.2-13,4.71-13.46,1.61.72,5.86,6.48,11.08,19.71L25.16,27l2.28-.82a50.71,50.71,0,0,1,33.52,0l2.28.82.89-2.25c5.23-13.23,9.47-19,11.08-19.71.58.48,3.19,3.38,5.79,18.13,1.7,9.68,2.55,19.93,2.38,24.24v.92c0,1.44,0,4,0,4.51A33.47,33.47,0,0,1,79.58,67.2Z"/></g></g></svg>