<svg xmlns="http://www.w3.org/2000/svg" width="3331.997" height="2161.334" viewBox="0 0 2499 1621"><path fill="none" d="m316 .08-13 1.01-26 3.181c-24.73 3.821-56.62 13.874-79 24.987-34.48 17.125-50.96 28.978-80 54.185-15.66 13.594-38.02 40.151-49.67 57.596C38.53 185.68 19.74 228.373 9 281.077-.44 327.41 1 363.65 1 410.113v149.04l1 16.005v13.003l1 13.004.91 14.004 6.82 66.018C24 773.272 56.16 874.09 137 928.585c12.49 8.422 28 16.624 42 22.226 26.73 10.693 55.35 16.544 84 18.545l12 .91h42l10-.91c25.62-1.75 50.71-5.101 76-9.673 63.31-11.423 125.09-29.638 187-46.853 51.04-14.203 108.89-31.208 162-30.588l19 1c15.28.18 44.61 4.822 60 8.003 82.61 17.104 147.15 58.226 209 114.2l13 12.794 9.99 9.053 10.02 10.993c45.72 46.863 86.36 98.267 127.6 149.04 33.66 41.442 67.75 82.443 103.56 122.034l28.79 30.008 9.05 10.003 14.99 14.014c60.91 59.446 128.08 110.2 203 150.721 89.81 48.584 191.24 78.762 292 93.606 29.94 4.411 59.85 7.752 90 9.823l26 1.95h11l12 .96 52 1 19-1 19-1.85c31.34-3.741 62.06-10.843 92-20.826 89.63-29.878 180.58-81.702 244.17-152.371 31.5-35.01 56.77-72.72 70.85-118.033 4.41-14.184 9.8-37.33 9.98-52.014l1-21.006V366.1l-.96-12.003v-15.004l-.95-10.003c-1.51-21.646-4.95-42.941-10.22-64.017-17.68-70.74-54.59-135.777-108.87-184.881-18.98-17.165-39.78-31.199-62-43.762-18.06-10.203-42.02-19.395-62-25.137-18.23-5.231-37.14-8.332-56-10.253h-10l-12-.96H316z" style="fill:#e0e621;fill-opacity:.73000002"/></svg>